<svg width="80" height="80" viewBox="0 0 80 80" fill="none" xmlns="http://www.w3.org/2000/svg">
    <path d="M0 38.4C0 24.9587 0 18.2381 2.61584 13.1042C4.9168 8.58834 8.58834 4.9168 13.1042 2.61584C18.2381 0 24.9587 0 38.4 0H41.6C55.0413 0 61.7619 0 66.8958 2.61584C71.4117 4.9168 75.0832 8.58834 77.3842 13.1042C80 18.2381 80 24.9587 80 38.4V41.6C80 55.0413 80 61.7619 77.3842 66.8958C75.0832 71.4117 71.4117 75.0832 66.8958 77.3842C61.7619 80 55.0413 80 41.6 80H38.4C24.9587 80 18.2381 80 13.1042 77.3842C8.58834 75.0832 4.9168 71.4117 2.61584 66.8958C0 61.7619 0 55.0413 0 41.6V38.4Z"
          fill="#6979F8"/>
    <path fill-rule="evenodd" clip-rule="evenodd"
          d="M40 20C28.9543 20 20 28.9543 20 40C20 51.0457 28.9543 60 40 60C51.0457 60 60 51.0457 60 40C60 28.9543 51.0457 20 40 20Z"
          fill="url(#paint0_linear)"/>
    <path d="M41.9592 38.5315H38.041C36.911 38.5315 35.9919 37.6293 35.9919 36.52C35.9919 35.4108 36.911 34.5086 38.041 34.5086H44.9446C45.7709 34.5086 46.4405 33.8511 46.4405 33.0401C46.4405 32.2291 45.7709 31.5716 44.9446 31.5716H41.4961V29.4685C41.4961 28.6575 40.8265 28 40.0001 28C39.1739 28 38.5041 28.6575 38.5041 29.4685V31.5716H38.041C35.2613 31.5716 33 33.7914 33 36.52C33 39.2487 35.2613 41.4685 38.041 41.4685H41.9592C43.089 41.4685 44.0081 42.3707 44.0081 43.48C44.0081 44.5892 43.089 45.4914 41.9592 45.4914H35.0556C34.2295 45.4914 33.5597 46.1489 33.5597 46.9599C33.5597 47.7709 34.2295 48.4284 35.0556 48.4284H38.5041V50.5315C38.5041 51.3425 39.1739 52 40.0001 52C40.8265 52 41.4961 51.3425 41.4961 50.5315V48.4284H41.9592C44.7389 48.4284 47 46.2086 47 43.48C47 40.7513 44.7389 38.5315 41.9592 38.5315Z"
          fill="#3F3356"/>
    <defs>
        <linearGradient id="paint0_linear" x1="59.9969" y1="20.0015" x2="20" y2="20.0015"
                        gradientUnits="userSpaceOnUse">
            <stop stop-color="#FFCF5C"/>
            <stop offset="1" stop-color="#F2C05A"/>
        </linearGradient>
    </defs>
</svg>
