<svg width="71" height="17" viewBox="0 0 71 17" fill="none" xmlns="http://www.w3.org/2000/svg">
    <path d="M23.2734 15.5456L18.4297 16.1706L17.8438 13.9635H15.6172L15.1289 16.1706L10.1484 15.6823L14.0352 2.67447L19.4648 2.40103L23.2734 15.5456ZM17.4922 10.9753L16.75 7.57681L16.0273 10.9753H17.4922Z" fill="#3F3356"/>
    <path d="M34.3867 2.694L30.8125 15.8971L25.9688 16.1706L21.5742 3.41666L26.2031 2.98697L28.0781 10.4088L29.8945 2.40103L34.3867 2.694Z" fill="#3F3356"/>
    <path d="M45.0801 8.49478C45.0801 9.06119 45.041 9.62759 44.9629 10.194C43.8496 10.2656 42.7428 10.3828 41.6426 10.5456C40.5423 10.7018 39.4421 10.8581 38.3418 11.0143C38.5111 11.4831 38.7747 11.8574 39.1328 12.1374C39.4974 12.4173 39.9303 12.5573 40.4316 12.5573C40.6921 12.5573 40.9753 12.5085 41.2812 12.4108C41.5938 12.3131 41.903 12.1927 42.209 12.0495C42.515 11.8997 42.8079 11.7402 43.0879 11.571C43.3678 11.4017 43.6087 11.2487 43.8105 11.112L43.3418 15.5456C43.0879 15.7409 42.8112 15.9069 42.5117 16.0436C42.2188 16.1803 41.9128 16.291 41.5938 16.3756C41.2747 16.4603 40.9525 16.5221 40.627 16.5612C40.3014 16.6003 39.9824 16.6198 39.6699 16.6198C39.0254 16.6198 38.4362 16.5319 37.9023 16.3561C37.3685 16.1803 36.8835 15.9362 36.4473 15.6237C36.0176 15.3047 35.64 14.9303 35.3145 14.5006C34.9889 14.071 34.7188 13.6022 34.5039 13.0944C34.2891 12.5866 34.1263 12.0495 34.0156 11.4831C33.9049 10.9167 33.8496 10.3437 33.8496 9.76431C33.8496 9.15884 33.9049 8.55338 34.0156 7.94791C34.1263 7.34244 34.2923 6.75976 34.5137 6.19986C34.7415 5.63996 35.0247 5.12239 35.3633 4.64713C35.7083 4.16535 36.1087 3.74543 36.5645 3.38736C37.0202 3.02929 37.5345 2.74934 38.1074 2.54752C38.6868 2.34569 39.3249 2.24478 40.0215 2.24478C40.6009 2.24478 41.1283 2.32616 41.6035 2.48892C42.0853 2.64517 42.5117 2.86653 42.8828 3.15298C43.2604 3.43293 43.5859 3.76822 43.8594 4.15884C44.1393 4.54947 44.3672 4.97916 44.543 5.44791C44.7253 5.91015 44.8587 6.40168 44.9434 6.92252C45.0345 7.43684 45.0801 7.96093 45.0801 8.49478ZM41.1738 7.98697C41.1738 7.80468 41.1543 7.61913 41.1152 7.43033C41.0762 7.23502 41.0111 7.05923 40.9199 6.90298C40.8353 6.74673 40.7214 6.61978 40.5781 6.52213C40.4349 6.41796 40.2559 6.36588 40.041 6.36588C39.7806 6.36588 39.5495 6.43749 39.3477 6.58072C39.1523 6.71744 38.9831 6.89322 38.8398 7.10806C38.6966 7.3164 38.5794 7.54426 38.4883 7.79166C38.3971 8.03905 38.3288 8.26692 38.2832 8.47525L41.1738 8.20181V7.98697Z" fill="#3F3356"/>
    <path d="M57.3164 15.9948L52.4336 16.2292L52.3945 12.1081H50.1484L50.0117 16.3854H45.6367L46.0078 2.65494L50.6562 2.86978L50.3633 9.8815H52.5312L52.5508 2.53775L57.0039 2.65494L57.3164 15.9948Z" fill="#3F3356"/>
    <path d="M70.5586 15.5456L65.7148 16.1706L65.1289 13.9635H62.9023L62.4141 16.1706L57.4336 15.6823L61.3203 2.67447L66.75 2.40103L70.5586 15.5456ZM64.7773 10.9753L64.0352 7.57681L63.3125 10.9753H64.7773Z" fill="#3F3356"/>
    <path d="M10.3594 10.2891L9.86719 15.4922L0 16.2656C0.046875 13.5391 0.0976562 10.8281 0.152344 8.13281C0.214844 5.4375 0.289062 2.72656 0.375 0H6.46875C6.28906 1.71094 6.11719 3.42188 5.95312 5.13281C5.78906 6.83594 5.67188 8.55469 5.60156 10.2891C5.96875 10.3047 6.33203 10.3125 6.69141 10.3125C7.05078 10.3125 7.41406 10.3125 7.78125 10.3125C8.21875 10.3125 8.64844 10.3086 9.07031 10.3008C9.49219 10.293 9.92188 10.2891 10.3594 10.2891Z" fill="#DA291C"/>
</svg>
