<svg width="54" height="18" viewBox="0 0 54 18" fill="none" xmlns="http://www.w3.org/2000/svg">
<path d="M13.336 13.336C13.5707 13.336 13.7947 13.3307 14.008 13.32C14.2213 13.3093 14.392 13.2933 14.52 13.272V11.464C14.424 11.4427 14.28 11.4213 14.088 11.4C13.896 11.3787 13.72 11.368 13.56 11.368C13.336 11.368 13.1227 11.384 12.92 11.416C12.728 11.4373 12.5573 11.4853 12.408 11.56C12.2587 11.6347 12.1413 11.736 12.056 11.864C11.9707 11.992 11.928 12.152 11.928 12.344C11.928 12.7173 12.0507 12.9787 12.296 13.128C12.552 13.2667 12.8987 13.336 13.336 13.336ZM13.144 6.36C13.848 6.36 14.4347 6.44 14.904 6.6C15.3733 6.76 15.7467 6.98933 16.024 7.288C16.312 7.58667 16.5147 7.94933 16.632 8.376C16.7493 8.80267 16.808 9.27733 16.808 9.8V14.76C16.4667 14.8347 15.992 14.92 15.384 15.016C14.776 15.1227 14.04 15.176 13.176 15.176C12.632 15.176 12.136 15.128 11.688 15.032C11.2507 14.936 10.872 14.7813 10.552 14.568C10.232 14.344 9.98667 14.056 9.816 13.704C9.64533 13.352 9.56 12.92 9.56 12.408C9.56 11.9173 9.656 11.5013 9.848 11.16C10.0507 10.8187 10.3173 10.5467 10.648 10.344C10.9787 10.1413 11.3573 9.99733 11.784 9.912C12.2107 9.816 12.6533 9.768 13.112 9.768C13.4213 9.768 13.6933 9.784 13.928 9.816C14.1733 9.83733 14.3707 9.86933 14.52 9.912V9.688C14.52 9.28267 14.3973 8.95733 14.152 8.712C13.9067 8.46667 13.48 8.344 12.872 8.344C12.4667 8.344 12.0667 8.376 11.672 8.44C11.2773 8.49333 10.936 8.57333 10.648 8.68L10.344 6.76C10.4827 6.71733 10.6533 6.67467 10.856 6.632C11.0693 6.57867 11.2987 6.536 11.544 6.504C11.7893 6.46133 12.0453 6.42933 12.312 6.408C12.5893 6.376 12.8667 6.36 13.144 6.36ZM21.0486 15C20.5046 13.9333 19.95 12.6853 19.3846 11.256C18.83 9.82667 18.302 8.26933 17.8006 6.584H20.3286C20.4353 7 20.558 7.45333 20.6966 7.944C20.846 8.424 20.9953 8.91467 21.1446 9.416C21.3046 9.90667 21.4593 10.3867 21.6086 10.856C21.7686 11.3253 21.9233 11.752 22.0726 12.136C22.2113 11.752 22.3606 11.3253 22.5206 10.856C22.6806 10.3867 22.8353 9.90667 22.9846 9.416C23.1446 8.91467 23.294 8.424 23.4326 7.944C23.582 7.45333 23.71 7 23.8166 6.584H26.2806C25.7793 8.26933 25.246 9.82667 24.6806 11.256C24.126 12.6853 23.5766 13.9333 23.0326 15H21.0486ZM26.9388 10.856C26.9388 10.1093 27.0508 9.45867 27.2747 8.904C27.5094 8.33867 27.8134 7.86933 28.1868 7.496C28.5601 7.12267 28.9868 6.84 29.4668 6.648C29.9574 6.456 30.4588 6.36 30.9708 6.36C32.1654 6.36 33.1094 6.728 33.8028 7.464C34.4961 8.18933 34.8428 9.26133 34.8428 10.68C34.8428 10.8187 34.8374 10.9733 34.8268 11.144C34.8161 11.304 34.8054 11.448 34.7948 11.576H29.3868C29.4401 12.0667 29.6694 12.456 30.0748 12.744C30.4801 13.032 31.0241 13.176 31.7068 13.176C32.1441 13.176 32.5708 13.1387 32.9868 13.064C33.4134 12.9787 33.7601 12.8773 34.0268 12.76L34.3468 14.696C34.2188 14.76 34.0481 14.824 33.8348 14.888C33.6214 14.952 33.3814 15.0053 33.1148 15.048C32.8588 15.1013 32.5814 15.144 32.2828 15.176C31.9841 15.208 31.6854 15.224 31.3868 15.224C30.6294 15.224 29.9681 15.112 29.4028 14.888C28.8481 14.664 28.3841 14.36 28.0108 13.976C27.6481 13.5813 27.3761 13.1173 27.1948 12.584C27.0241 12.0507 26.9388 11.4747 26.9388 10.856ZM32.5388 9.944C32.5281 9.74133 32.4908 9.544 32.4268 9.352C32.3734 9.16 32.2828 8.98933 32.1548 8.84C32.0374 8.69067 31.8828 8.568 31.6908 8.472C31.5094 8.376 31.2801 8.328 31.0028 8.328C30.7361 8.328 30.5068 8.376 30.3148 8.472C30.1228 8.55733 29.9628 8.67467 29.8348 8.824C29.7068 8.97333 29.6054 9.14933 29.5308 9.352C29.4668 9.544 29.4188 9.74133 29.3868 9.944H32.5388ZM36.6825 15V2.968L39.0665 2.584V6.616C39.2265 6.56267 39.4292 6.51467 39.6745 6.472C39.9305 6.41867 40.1758 6.392 40.4105 6.392C41.0932 6.392 41.6585 6.488 42.1065 6.68C42.5652 6.86133 42.9278 7.12267 43.1945 7.464C43.4718 7.80533 43.6638 8.21067 43.7705 8.68C43.8878 9.14933 43.9465 9.672 43.9465 10.248V15H41.5625V10.536C41.5625 9.768 41.4612 9.224 41.2585 8.904C41.0665 8.584 40.7038 8.424 40.1705 8.424C39.9572 8.424 39.7545 8.44533 39.5625 8.488C39.3812 8.52 39.2158 8.55733 39.0665 8.6V15H36.6825ZM49.3204 13.336C49.555 13.336 49.779 13.3307 49.9924 13.32C50.2057 13.3093 50.3764 13.2933 50.5044 13.272V11.464C50.4084 11.4427 50.2644 11.4213 50.0724 11.4C49.8804 11.3787 49.7044 11.368 49.5444 11.368C49.3204 11.368 49.107 11.384 48.9044 11.416C48.7124 11.4373 48.5417 11.4853 48.3924 11.56C48.243 11.6347 48.1257 11.736 48.0404 11.864C47.955 11.992 47.9124 12.152 47.9124 12.344C47.9124 12.7173 48.035 12.9787 48.2804 13.128C48.5364 13.2667 48.883 13.336 49.3204 13.336ZM49.1284 6.36C49.8324 6.36 50.419 6.44 50.8884 6.6C51.3577 6.76 51.731 6.98933 52.0084 7.288C52.2964 7.58667 52.499 7.94933 52.6164 8.376C52.7337 8.80267 52.7924 9.27733 52.7924 9.8V14.76C52.451 14.8347 51.9764 14.92 51.3684 15.016C50.7604 15.1227 50.0244 15.176 49.1604 15.176C48.6164 15.176 48.1204 15.128 47.6724 15.032C47.235 14.936 46.8564 14.7813 46.5364 14.568C46.2164 14.344 45.971 14.056 45.8004 13.704C45.6297 13.352 45.5444 12.92 45.5444 12.408C45.5444 11.9173 45.6404 11.5013 45.8324 11.16C46.035 10.8187 46.3017 10.5467 46.6324 10.344C46.963 10.1413 47.3417 9.99733 47.7684 9.912C48.195 9.816 48.6377 9.768 49.0964 9.768C49.4057 9.768 49.6777 9.784 49.9124 9.816C50.1577 9.83733 50.355 9.86933 50.5044 9.912V9.688C50.5044 9.28267 50.3817 8.95733 50.1364 8.712C49.891 8.46667 49.4644 8.344 48.8564 8.344C48.451 8.344 48.051 8.376 47.6564 8.44C47.2617 8.49333 46.9204 8.57333 46.6324 8.68L46.3284 6.76C46.467 6.71733 46.6377 6.67467 46.8404 6.632C47.0537 6.57867 47.283 6.536 47.5284 6.504C47.7737 6.46133 48.0297 6.42933 48.2964 6.408C48.5737 6.376 48.851 6.36 49.1284 6.36Z" fill="black"/>
<path d="M8.688 12.856V15H1.28V3.912H3.776V12.856H8.688Z" fill="#DA291C"/>
</svg>
