<svg width="71" height="30" viewBox="0 0 71 30" fill="none" xmlns="http://www.w3.org/2000/svg">
<path d="M16.4 23.3C17.2333 23.3 17.9333 23.1733 18.5 22.92C19.0733 22.66 19.6 22.2467 20.08 21.68V23H22.46V16.4C22.46 15.9067 22.44 15.46 22.4 15.06C22.36 14.66 22.2333 14.26 22.02 13.86C21.64 13.14 21.08 12.6333 20.34 12.34C19.6 12.0467 18.7533 11.9 17.8 11.9C16.5 11.9 15.4733 12.18 14.72 12.74C13.9667 13.3 13.4533 14.0267 13.18 14.92L15.64 15.7C15.8133 15.2067 16.1167 14.8633 16.55 14.67C16.9833 14.4767 17.4 14.38 17.8 14.38C18.44 14.38 18.9167 14.5 19.23 14.74C19.5433 14.9733 19.7267 15.3433 19.78 15.85C18.7667 15.9967 17.8733 16.14 17.1 16.28C16.3267 16.4133 15.68 16.5733 15.16 16.76C14.2933 17.08 13.6833 17.5167 13.33 18.07C12.9767 18.6167 12.8 19.2667 12.8 20.02C12.8 20.62 12.9367 21.17 13.21 21.67C13.49 22.1633 13.8967 22.56 14.43 22.86C14.97 23.1533 15.6267 23.3 16.4 23.3ZM16.98 21.16C16.5133 21.16 16.1433 21.0567 15.87 20.85C15.5967 20.6367 15.46 20.3467 15.46 19.98C15.46 19.7067 15.5467 19.4733 15.72 19.28C15.8933 19.08 16.18 18.9 16.58 18.74C16.8867 18.6267 17.2633 18.5233 17.71 18.43C18.1633 18.33 18.8467 18.2033 19.76 18.05C19.7533 18.31 19.7333 18.5967 19.7 18.91C19.6667 19.2167 19.5933 19.4867 19.48 19.72C19.4067 19.8733 19.2667 20.0633 19.06 20.29C18.86 20.5167 18.5867 20.72 18.24 20.9C17.9 21.0733 17.48 21.16 16.98 21.16ZM27.5895 23H30.3095L34.2295 12.2H31.5095L28.9495 19.68L26.3895 12.2H23.6695L27.5895 23ZM40.6661 23.3C41.7061 23.3 42.6628 23.0267 43.5361 22.48C44.4161 21.9333 45.0594 21.1667 45.4661 20.18L42.7461 19.4C42.3328 20.3067 41.5861 20.76 40.5061 20.76C39.7661 20.76 39.1828 20.5533 38.7561 20.14C38.3361 19.7267 38.0761 19.1333 37.9761 18.36H45.5561C45.6694 17.0533 45.5361 15.9167 45.1561 14.95C44.7761 13.9833 44.1894 13.2333 43.3961 12.7C42.6028 12.1667 41.6394 11.9 40.5061 11.9C39.4394 11.9 38.4961 12.1433 37.6761 12.63C36.8561 13.11 36.2128 13.7867 35.7461 14.66C35.2794 15.5333 35.0461 16.56 35.0461 17.74C35.0461 18.82 35.2828 19.78 35.7561 20.62C36.2361 21.4533 36.8961 22.11 37.7361 22.59C38.5828 23.0633 39.5594 23.3 40.6661 23.3ZM40.6261 14.26C41.2794 14.26 41.7794 14.4233 42.1261 14.75C42.4794 15.0767 42.7061 15.6067 42.8061 16.34H38.0461C38.3328 14.9533 39.1928 14.26 40.6261 14.26ZM47.7941 23H50.5541V17.52C50.5541 16.8467 50.6274 16.3067 50.7741 15.9C50.9274 15.4933 51.1207 15.1867 51.3541 14.98C51.5874 14.7667 51.8374 14.6233 52.1041 14.55C52.3707 14.4767 52.6207 14.44 52.8541 14.44C53.4341 14.44 53.8807 14.57 54.1941 14.83C54.5141 15.09 54.7441 15.4133 54.8841 15.8C55.0241 16.1867 55.1074 16.5733 55.1341 16.96C55.1607 17.34 55.1741 17.6533 55.1741 17.9V23H57.9341V16.94C57.9341 16.76 57.9207 16.4733 57.8941 16.08C57.8674 15.6867 57.7907 15.2533 57.6641 14.78C57.5374 14.3 57.3241 13.84 57.0241 13.4C56.7307 12.96 56.3174 12.5967 55.7841 12.31C55.2507 12.0233 54.5607 11.88 53.7141 11.88C52.9341 11.88 52.2541 12.01 51.6741 12.27C51.0941 12.53 50.6074 12.8767 50.2141 13.31V8.6H47.7941V23ZM63.5289 23.3C64.3622 23.3 65.0622 23.1733 65.6289 22.92C66.2022 22.66 66.7289 22.2467 67.2089 21.68V23H69.5889V16.4C69.5889 15.9067 69.5689 15.46 69.5289 15.06C69.4889 14.66 69.3622 14.26 69.1489 13.86C68.7689 13.14 68.2089 12.6333 67.4689 12.34C66.7289 12.0467 65.8822 11.9 64.9289 11.9C63.6289 11.9 62.6022 12.18 61.8489 12.74C61.0956 13.3 60.5822 14.0267 60.3089 14.92L62.7689 15.7C62.9422 15.2067 63.2456 14.8633 63.6789 14.67C64.1122 14.4767 64.5289 14.38 64.9289 14.38C65.5689 14.38 66.0456 14.5 66.3589 14.74C66.6722 14.9733 66.8556 15.3433 66.9089 15.85C65.8956 15.9967 65.0022 16.14 64.2289 16.28C63.4556 16.4133 62.8089 16.5733 62.2889 16.76C61.4222 17.08 60.8122 17.5167 60.4589 18.07C60.1056 18.6167 59.9289 19.2667 59.9289 20.02C59.9289 20.62 60.0656 21.17 60.3389 21.67C60.6189 22.1633 61.0256 22.56 61.5589 22.86C62.0989 23.1533 62.7556 23.3 63.5289 23.3ZM64.1089 21.16C63.6422 21.16 63.2722 21.0567 62.9989 20.85C62.7256 20.6367 62.5889 20.3467 62.5889 19.98C62.5889 19.7067 62.6756 19.4733 62.8489 19.28C63.0222 19.08 63.3089 18.9 63.7089 18.74C64.0156 18.6267 64.3922 18.5233 64.8389 18.43C65.2922 18.33 65.9756 18.2033 66.8889 18.05C66.8822 18.31 66.8622 18.5967 66.8289 18.91C66.7956 19.2167 66.7222 19.4867 66.6089 19.72C66.5356 19.8733 66.3956 20.0633 66.1889 20.29C65.9889 20.5167 65.7156 20.72 65.3689 20.9C65.0289 21.0733 64.6089 21.16 64.1089 21.16Z" fill="black"/>
<path d="M1.76 23H11.572V20.206H4.752V7.16H1.76V23Z" fill="#DA291C"/>
</svg>
