<?xml version="1.0" standalone="no"?>
<!DOCTYPE svg PUBLIC "-//W3C//DTD SVG 20010904//EN"
 "http://www.w3.org/TR/2001/REC-SVG-20010904/DTD/svg10.dtd">
<svg version="1.0" xmlns="http://www.w3.org/2000/svg"
 width="752.000000pt" height="752.000000pt" viewBox="0 0 752.000000 752.000000"
 preserveAspectRatio="xMidYMid meet">
<metadata>
Created by potrace 1.14, written by Peter Selinger 2001-2017
</metadata>
<g transform="translate(0.000000,752.000000) scale(0.100000,-0.100000)"
fill="#000000" stroke="none">
<path d="M117 7358 c-5 -3 -16 -4 -24 -1 -11 4 -13 -602 -13 -3676 l0 -3681
3680 0 3680 0 0 3678 0 3679 -27 1 c-16 1 -40 3 -55 5 -14 2 -32 1 -39 -3 -6
-4 -25 -4 -40 0 -16 5 -29 6 -29 2 0 -4 -19 -6 -42 -5 -82 5 -130 5 -135 -1
-4 -3 -12 -1 -19 5 -8 7 -14 7 -18 0 -4 -6 -15 -7 -30 -1 -12 4 -29 4 -36 0
-8 -5 -18 -6 -23 -3 -12 7 -106 7 -113 0 -3 -3 -19 -1 -35 3 -16 5 -29 6 -29
2 0 -4 -28 -6 -62 -4 -35 2 -72 3 -83 2 -11 -1 -26 -1 -32 -1 -7 1 -20 1 -28
1 -8 0 -22 0 -30 0 -8 0 -22 0 -30 0 -8 0 -21 0 -27 0 -7 0 -34 0 -60 1 -27 1
-50 0 -54 -3 -3 -3 -21 -2 -40 2 -18 4 -34 5 -34 1 0 -3 -19 -5 -42 -4 -82 5
-130 5 -135 -1 -4 -3 -12 -1 -19 5 -8 7 -14 7 -18 0 -4 -6 -15 -7 -30 -1 -12
4 -29 4 -36 0 -8 -5 -18 -6 -23 -3 -12 7 -106 7 -113 0 -3 -3 -19 -1 -35 3
-16 5 -29 6 -29 2 0 -4 -28 -6 -62 -4 -35 2 -72 3 -83 2 -11 -1 -26 -1 -32 -1
-7 1 -20 1 -28 1 -8 0 -22 0 -30 0 -8 0 -22 0 -30 0 -8 0 -22 0 -30 0 -8 0
-38 0 -65 1 -28 1 -53 -1 -56 -4 -3 -3 -19 -1 -35 3 -16 5 -29 6 -29 2 0 -4
-19 -6 -42 -5 -82 5 -130 5 -135 -1 -4 -3 -12 -1 -19 5 -8 7 -14 7 -18 0 -4
-6 -15 -7 -30 -1 -12 4 -29 4 -36 0 -8 -5 -18 -6 -23 -3 -12 7 -106 7 -113 0
-3 -3 -19 -1 -35 3 -16 5 -29 6 -29 2 0 -4 -28 -6 -62 -4 -35 2 -72 3 -83 2
-11 -1 -26 -1 -32 -1 -7 1 -20 1 -28 1 -8 0 -22 0 -30 0 -8 0 -22 0 -30 0 -8
0 -21 0 -27 0 -7 0 -34 0 -60 1 -27 1 -50 0 -54 -3 -3 -3 -21 -2 -40 2 -18 4
-34 5 -34 1 0 -3 -19 -5 -42 -4 -82 5 -130 5 -135 -1 -4 -3 -12 -1 -19 5 -8 7
-14 7 -18 0 -4 -6 -15 -7 -30 -1 -12 4 -29 4 -36 0 -8 -5 -18 -6 -23 -3 -12 7
-106 7 -113 0 -3 -3 -19 -1 -35 3 -16 5 -29 6 -29 2 0 -4 -28 -6 -62 -4 -35 2
-72 3 -83 2 -11 -1 -26 -1 -32 -1 -7 1 -20 1 -28 1 -8 0 -22 0 -30 0 -8 0 -22
0 -30 0 -8 0 -22 0 -30 0 -8 0 -38 0 -65 1 -28 1 -53 -1 -56 -4 -3 -3 -19 -1
-35 3 -16 5 -29 6 -29 2 0 -4 -19 -6 -42 -5 -82 5 -130 5 -135 -1 -4 -3 -12
-1 -19 5 -8 7 -14 7 -18 0 -4 -6 -15 -7 -30 -1 -12 4 -29 4 -36 0 -8 -5 -18
-6 -23 -3 -12 7 -106 7 -113 0 -3 -3 -19 -1 -35 3 -16 5 -29 6 -29 2 0 -4 -28
-6 -62 -4 -35 2 -72 3 -83 2 -11 -1 -26 -1 -32 -1 -7 1 -20 1 -28 1 -8 0 -22
0 -30 0 -8 0 -22 0 -30 0 -8 0 -21 0 -27 0 -7 0 -34 0 -60 1 -27 1 -50 0 -54
-3 -3 -3 -21 -2 -40 2 -18 4 -34 5 -34 1 0 -3 -19 -5 -42 -4 -82 5 -130 5
-135 -1 -4 -3 -12 -1 -19 5 -8 7 -14 7 -18 0 -4 -6 -15 -7 -30 -1 -12 4 -29 4
-36 0 -8 -5 -18 -6 -23 -3 -12 7 -106 7 -113 0 -3 -3 -19 -1 -35 3 -16 5 -29
6 -29 2 0 -4 -28 -6 -62 -4 -35 2 -72 3 -83 2 -11 -1 -26 -1 -32 -1 -7 1 -20
1 -28 1 -8 0 -22 0 -30 0 -8 0 -22 0 -30 0 -8 0 -22 0 -30 0 -8 0 -38 0 -65 1
-28 1 -53 -1 -56 -4 -3 -3 -19 -1 -35 3 -16 5 -29 6 -29 2 0 -4 -19 -6 -42 -5
-82 5 -130 5 -135 -1 -4 -3 -12 -1 -19 5 -8 7 -14 7 -18 0 -4 -6 -15 -7 -30
-1 -12 4 -29 4 -36 0 -8 -5 -18 -6 -23 -3 -12 7 -106 7 -113 0 -3 -3 -19 -1
-35 3 -16 5 -29 6 -29 2 0 -4 -28 -6 -62 -4 -35 2 -72 3 -83 2 -11 -1 -26 -1
-32 -1 -7 1 -20 1 -28 1 -8 0 -22 0 -30 0 -8 0 -22 0 -30 0 -8 0 -22 0 -30 0
-8 0 -38 0 -65 1 -28 1 -53 -1 -56 -4 -3 -3 -19 -1 -35 3 -16 5 -29 6 -29 2 0
-4 -19 -6 -42 -5 -82 5 -130 5 -135 -1 -4 -3 -12 -1 -19 5 -8 7 -14 7 -18 0
-4 -6 -15 -7 -30 -1 -12 4 -29 4 -36 0 -8 -5 -18 -6 -23 -3 -13 8 -97 9 -110
1z"/>
</g>
</svg>
